<svg xmlns="http://www.w3.org/2000/svg" viewBox="0 0 1000.97 1066.97"><defs><style>.a{fill:#248bcc}.b{fill:#136faa}.c{fill:#231f20}.d{fill:#1d1f21}</style></defs><path class="a" d="M745.76 304.06c0-15.06 15-33.09 31.09-33.09 1.67 0 3.31-.06 4.91-.08l7.68-66.89-31.23-67.42a30.77 30.77 0 0 1-2.46-7.09 36.12 36.12 0 0 1-.83-7.71 32.08 32.08 0 0 1 6.84-19.78v.25a31.32 31.32 0 0 1 2.48-2.9L501 6l-263.17 94.74c.41.48.8 1 1.18 1.48v-.25a32.08 32.08 0 0 1 6.84 19.84 36.12 36.12 0 0 1-.83 7.71 30.77 30.77 0 0 1-2.46 7.09l-31.35 67.7 7.51 66.57c1.7 0 3.43.09 5.2.09C240 271 255 289 255 304.06c0 16.8-15.75 33.45-28.74 33.72L245 504l256 138 254-138 19.08-166.24c-12.9-.61-28.32-17.08-28.32-33.7zM606.68 481L573 397H431l-33.65 84h-62.44L502 105.7 669.09 481z"/><path class="a" d="M453.11 345.26h97.78L502 227.64l-48.89 117.62z"/><path class="b" d="M645.39 427.77l23.7 53.23h-62.41L573 397H431l-33.65 84h-62.44l92-206.74-187.18-131.58-30.15 65.11 7.12 63.1c2.32-.05 4.73.08 7.2.08C240 271 255 289 255 304.06c0 16.94-16 33.73-29.06 33.73a9.22 9.22 0 0 1-1.67.07L243 504l256 138 254-138 .06-.56z"/><path class="b" d="M527.98 345.26l-57.94-40.72-16.93 40.72h74.87z"/><path class="c" d="M255 304.06c0 16.94-16 33.73-29.06 33.73a27.4 27.4 0 0 1-4 0c-7.69 0-13.77-1.64-19.35-6.16l-38.41-28.94-30.65 66.22a31.75 31.75 0 0 1 5.61-1c3.43-.17 12-.23 18 5.39 4.15 3.9 8.64 10.72 11.93 19.56L210 509.81c.45-.14.9-.2 1.38-.31C229.94 506.16 244 521.24 244 539s-16.54 32.23-32.6 32.23a32 32 0 0 1-22.88-9.54 50 50 0 0 1-8.67-9.94l-57.77-81.72-30.68 48.6c5.59 4.29 9.07 10.8 9.41 19.67.67 18.87-15.42 32.34-32.2 32.57-18.79.08-37-17.38-32.2-37.7.42-1.6 28.18-105.92 35.79-134.39L60 383l-4.15 14.37c-3.09 10.67-5.73 21.73-8.62 26a18.58 18.58 0 0 1-15.92 8.78 18.78 18.78 0 0 1-18.84-18.83 18 18 0 0 1 18.84-18 23.64 23.64 0 0 1 5.33.84L45.45 364l-4.52-5.84c-13.59-17.68-21.68-27.9-27.82-39.64A65.47 65.47 0 0 1 8 271.44c6.82-25.32 26.78-31.27 38.68-30.65 17.91.84 28.69 10.72 33.27 22.06 4.86 12.19 4 24.76 1.8 33.8l-15.61 62.21C71 365.1 75 371.66 77.9 375.23l29.56-115.18-66-48.68C3.56 183.55 3.9 138.8 16.28 114.63 28 91.5 44.72 79.82 59.23 74.51a70 70 0 0 1 9.88-3.11c.11-2 .14-3.4.2-4 .28-3 3.82-4.35 6.82-5 6.76-1.46 8.65 1.35 8.65 2.36l.19 4c16.2-1.76 50.7-1.57 50.7-1.57l-.11 9.46v23.61l-13.7 1.6a3.6 3.6 0 0 0-3.06 3.85 4.72 4.72 0 0 0 3.87 4.49 8.52 8.52 0 0 0 3.12.53h.21l42.19-4.68-5.19 16.1c-16.42 1.86-29.36 3-38.9 3.51h-1.24a19.94 19.94 0 0 1-1-39.86v-3.88c-5.73.14-12.63.42-20.27 1.1a20.74 20.74 0 0 1-5.22 9.49 53.33 53.33 0 0 1-9.91 8.14l.22 4.94a107.51 107.51 0 0 0 .26 14.93c.73 6.85 4.8 12 19.65 12.5 14.12.47 31.52-2.28 31.52-2.28l-1 10.45c5.76 3.2 11.43 7.86 18.73 14.37a80.52 80.52 0 0 1 13.75 17.18l17.8-34.31a30 30 0 0 1-6-18c0-16.93 15.52-30.68 31.83-30.68 10.95 0 20.16 4.91 25.8 12.46v-.25a32.08 32.08 0 0 1 6.84 19.84 36.12 36.12 0 0 1-.83 7.71 30.77 30.77 0 0 1-2.46 7.09L187 256.55l21.31 16.06c4.7-2.33 10-1.64 15.59-1.64C240 271 255 289 255 304.06zm-17.81 2.36c.26-7.8-4.6-15.38-14.88-15.21l-.19.05a16 16 0 0 0-10.53 4.21l-13.81-10.21-5.92-4.38-58.34-43.07 4.38-18.5 30.26 22.88a80.47 80.47 0 0 0-7.52-54.91c-4.3-7.72-15.47-25.1-36.19-35.76a95 95 0 0 0-10.72-4.61c-6.29.23-12.89.37-18.39.26C79.33 146.8 73.49 137 72 130.74a148.37 148.37 0 0 1-3.09-26.16c-.2-4.32-.2-10-.2-15.72C47.47 95.51 28 117.44 26.1 141.8c-2.33 29.87 14 47.84 25.86 56.68l124.78 92.73 13.87 10.24 22.49 16.76a15.21 15.21 0 0 0 8.7 2.59 12.54 12.54 0 0 0 3.34-.48c6.26-1.83 11.86-8.25 12.04-13.9zm-11.26-176.18a15.29 15.29 0 0 0 1.6-6.71 13.87 13.87 0 0 0-13.76-14c-7.16 0-13.7 6.91-13.7 14a14 14 0 0 0 6.79 12l-28.29 54.94a84.51 84.51 0 0 1 5 17c.88 5.22 1.44 8.73 1.74 11.09zm-1.72 408.26a13.53 13.53 0 0 0-13.5-13.56c-4.94 0-8.73 1.77-11.11 4.72l-.88 1.4-4.54-12.8-.51-1.46c-12-34-41.27-117.4-42.59-120.82-1.65-4.24-5.53-11.35-14.26-13.15-5.5-1.17-8.56-.13-10 .74l-9 19.28c13.11 0 24 10.87 24 27.15 0 6.91-3.9 15-9.13 23.41l50.26 71 2.24 3.2 7.89 11s5.78 7.72 8.17 9.75a13.91 13.91 0 0 0 9.43 3.76 13.58 13.58 0 0 0 13.53-13.62zM96.76 410.24l54.1-117.66-27-20.13-68.7 261.64a16.31 16.31 0 0 0-.39 4.21c0 7.53 5.67 13.31 14.2 13.31 8.34 0 13.06-7.69 13.06-13.31 0-7.52-5.76-14.09-13.84-13.86h-.79l7.69-12 2.22-3.57 21.84-34.22 4.55-7.07 14.17-22.27a42.77 42.77 0 0 0 3.74-7.77v-.25a10.16 10.16 0 0 0 .43-1.6 4.41 4.41 0 0 1 .25-1 18.83 18.83 0 0 0-18.45-21.89 18.46 18.46 0 0 0-9.4 2.52zm-33.21-115c4.44-17.15-1.34-33.94-16-35.32-11.74-1.09-21.12 11.26-21.12 22.18 0 22 12.66 39.78 17.58 46.91 1.23 1.8 4.27 5.75 8 10.75zM776.85 271c5.6 0 10.89-.69 15.59 1.64l21.31-16.06-55.54-119.97a30.77 30.77 0 0 1-2.46-7.09 36.12 36.12 0 0 1-.83-7.71 32.08 32.08 0 0 1 6.84-19.81v.25c5.64-7.55 14.85-12.46 25.8-12.46 16.31 0 31.83 13.75 31.83 30.68a30 30 0 0 1-6 18l17.8 34.31a80.52 80.52 0 0 1 13.75-17.18c7.3-6.51 13-11.17 18.73-14.37l-1-10.45s17.4 2.75 31.52 2.28c14.85-.54 18.92-5.65 19.65-12.5a107.51 107.51 0 0 0 .26-14.93l.22-4.94a53.33 53.33 0 0 1-9.91-8.14 20.74 20.74 0 0 1-5.25-9.55c-7.64-.68-14.54-1-20.27-1.1v3.91a19.94 19.94 0 0 1-1 39.86h-1.24c-9.54-.53-22.48-1.65-38.9-3.51l-5.14-16.08 42.19 4.68h.2a8.52 8.52 0 0 0 3.12-.53 4.72 4.72 0 0 0 3.87-4.49 3.6 3.6 0 0 0-3.06-3.85l-13.7-1.6V76.67l-.11-9.46s34.5-.19 50.7 1.57l.19-4c0-1 1.89-3.82 8.65-2.36 3 .62 6.54 2 6.82 5 .06.62.09 2.05.2 4a70 70 0 0 1 9.88 3.11c14.51 5.31 31.19 17 43 40.12 12.38 24.17 12.72 68.92-25.15 96.74l-66 48.68 29.56 115.18c2.86-3.57 6.93-10.13 11.76-16.37L919 296.65c-2.19-9-3.06-21.61 1.8-33.8 4.58-11.34 15.36-21.22 33.27-22.06 11.9-.62 31.86 5.33 38.68 30.65a65.47 65.47 0 0 1-5.14 47.05c-6.14 11.74-14.23 22-27.82 39.64L955.3 364l8.85 32.17a23.64 23.64 0 0 1 5.33-.84 18 18 0 0 1 18.84 18 18.78 18.78 0 0 1-18.84 18.83 18.58 18.58 0 0 1-15.92-8.78c-2.89-4.27-5.53-15.33-8.62-26L940.79 383l-12.24 15.83c7.61 28.47 35.37 132.79 35.79 134.39 4.78 20.32-13.41 37.78-32.2 37.7-16.78-.23-32.87-13.7-32.2-32.57.34-8.87 3.82-15.38 9.41-19.67l-30.69-48.57-57.77 81.72a50 50 0 0 1-8.67 9.94 32 32 0 0 1-22.88 9.54c-16.06 0-32.6-14.37-32.6-32.23s14.07-32.87 32.65-29.53c.48.11.93.17 1.38.31l40.9-116.9c3.29-8.84 7.78-15.66 11.93-19.56 5.93-5.62 14.54-5.56 18-5.39a31.75 31.75 0 0 1 5.61 1l-30.65-66.22-38.41 28.94c-5.58 4.52-11.66 6.16-19.35 6.16a27.4 27.4 0 0 1-3.95 0c-13.05 0-29.06-16.79-29.06-33.73C745.76 289 760.75 271 776.85 271zm-1.24 49.35a12.54 12.54 0 0 0 3.34.48 15.21 15.21 0 0 0 8.7-2.59l22.49-16.76L824 291.21l124.78-92.73c11.85-8.84 28.19-26.81 25.86-56.68-1.91-24.36-21.37-46.29-42.56-52.94 0 5.72 0 11.4-.2 15.72a148.37 148.37 0 0 1-3.09 26.16c-1.54 6.29-7.38 16.06-23.38 16.43-5.5.11-12.1 0-18.39-.26a95 95 0 0 0-10.72 4.61c-20.72 10.66-31.89 28-36.19 35.76a80.47 80.47 0 0 0-7.52 54.91l30.26-22.88 4.38 18.5-58.33 43.07-5.9 4.38-13.81 10.21a16 16 0 0 0-10.53-4.21l-.19-.05c-10.28-.17-15.14 7.41-14.88 15.21.14 5.65 5.76 12.07 12.02 13.9zm39.84-101.74c.3-2.36.86-5.87 1.74-11.09a84.51 84.51 0 0 1 5-17l-28.29-54.94a14 14 0 0 0 6.79-12c0-7-6.54-14-13.7-14a13.87 13.87 0 0 0-13.76 14 15.29 15.29 0 0 0 1.6 6.71zM790 552.12a13.91 13.91 0 0 0 9.43-3.76c2.39-2 8.17-9.75 8.17-9.75l7.89-11 2.24-3.2 50.26-71c-5.23-8.39-9.13-16.5-9.13-23.41 0-16.28 10.89-27.15 24-27.15L874 383.57c-1.46-.87-4.52-1.91-10-.74-8.73 1.8-12.61 8.91-14.26 13.15-1.32 3.42-30.6 86.77-42.59 120.82l-.51 1.46-4.64 12.8-.88-1.4c-2.38-2.95-6.17-4.72-11.11-4.72a13.59 13.59 0 0 0 0 27.18zM906.26 415.4a18.72 18.72 0 0 0-28.1 16.14 18.65 18.65 0 0 0 .25 3.23 4.41 4.41 0 0 1 .25 1 10.16 10.16 0 0 0 .43 1.6v.25a42.77 42.77 0 0 0 3.74 7.77L897 467.66l4.55 7.07 21.84 34.22 2.22 3.57 7.69 12h-.79c-8.08-.23-13.84 6.34-13.84 13.86 0 5.62 4.72 13.31 13.06 13.31 8.53 0 14.2-5.78 14.2-13.31a16.31 16.31 0 0 0-.39-4.21l-68.62-261.72-27 20.13L904 410.24zm42.5-75.6c3.76-5 6.8-8.95 8-10.75 4.92-7.13 17.58-24.93 17.58-46.91 0-10.92-9.38-23.27-21.12-22.18-14.71 1.38-20.49 18.17-16 35.32z"/><path class="d" d="M78.62 862.65l33.48-185.49a1.28 1.28 0 0 1 1.35-1.08h39.15a1.28 1.28 0 0 1 1.35 1.08l32.13 185.49q.27 1.35-1.08 1.35h-30q-1.08 0-1.35-1.35l-3-19.71H114l-3 19.71q-.27 1.35-1.35 1.35h-30q-1.03 0-1.03-1.35zm40.77-48.6h25.92l-11.07-75.87-1.62-10-1.08 10zM205.52 864c-1.45 0-2.16-.63-2.16-1.89l-.27-183.87a1.91 1.91 0 0 1 2.16-2.16h24.3l45.63 106.38-1.35-104.22q0-2.16 2.43-2.16H303q1.62 0 1.62 2.16l.27 184.14c0 1.08-.46 1.62-1.35 1.62h-23.77l-46.71-99.36 1.89 97.2q0 2.16-2.43 2.16zM377.77 866.7a49.59 49.59 0 0 1-26.46-7.29 55 55 0 0 1-19-19.58 53.41 53.41 0 0 1-7.16-27.4v-85.59a52.48 52.48 0 0 1 7.13-26.84 54.81 54.81 0 0 1 19.17-19.57 49.78 49.78 0 0 1 26.32-7.29 51.61 51.61 0 0 1 26.87 7.15 53.14 53.14 0 0 1 26.05 46.58v12.42q0 1.08-1.35 1.08H399.1a1 1 0 0 1-1.08-1.08V729q0-10.26-5.8-17a18.3 18.3 0 0 0-14.45-6.75q-7.83 0-13.9 6.48a21.42 21.42 0 0 0-6.08 15.12v85.59a21.5 21.5 0 0 0 5.94 15.25 18.59 18.59 0 0 0 14 6.35 19 19 0 0 0 14.45-6.21 21.67 21.67 0 0 0 5.8-15.39V799.2h-18.9a1.19 1.19 0 0 1-1.35-1.35v-30.24a1.19 1.19 0 0 1 1.35-1.35h50.49q1.08 0 1.08 1.35v44.82a53.4 53.4 0 0 1-7.15 27.4 55.06 55.06 0 0 1-19 19.58 50.08 50.08 0 0 1-26.73 7.29zM501.16 866.7a49.89 49.89 0 0 1-26.46-7.42 55.06 55.06 0 0 1-19.3-19.85 53.67 53.67 0 0 1-7.16-27.27l.54-135a1 1 0 0 1 1.08-1.08h30.24a1 1 0 0 1 1.08 1.08v135a22.09 22.09 0 0 0 5.82 15.52 18.45 18.45 0 0 0 14.16 6.32 18.77 18.77 0 0 0 14.45-6.35 22.13 22.13 0 0 0 5.8-15.52v-135a1 1 0 0 1 1.08-1.08h30.24a1 1 0 0 1 1.08 1.08l.54 135A54.66 54.66 0 0 1 528 859.41a50.79 50.79 0 0 1-26.84 7.29zM576.76 864q-1.08 0-1.08-1.35l.32-185.22a1.19 1.19 0 0 1 1.35-1.35h30a1.19 1.19 0 0 1 1.35 1.35l-.27 153.36H664a1.19 1.19 0 0 1 1.35 1.35v30.51A1.19 1.19 0 0 1 664 864zM673.69 862.65l33.48-185.49a1.26 1.26 0 0 1 1.35-1.08h39.15a1.29 1.29 0 0 1 1.35 1.08l32.13 185.49q.26 1.35-1.08 1.35h-30c-.72 0-1.18-.45-1.35-1.35l-3-19.71h-36.66l-3 19.71c-.18.9-.64 1.35-1.35 1.35h-30c-.71 0-1.02-.45-1.02-1.35zm40.77-48.6h25.92l-11.07-75.87-1.62-10-1.08 10zM799.23 864q-1.08 0-1.08-1.35l.54-185.49a1 1 0 0 1 1.08-1.08h54.54a52.48 52.48 0 0 1 26.87 7.16 54.73 54.73 0 0 1 19.57 19.17 54.76 54.76 0 0 1 4.32 45.09 55.77 55.77 0 0 1-7 13.5 46.93 46.93 0 0 1-7.29 8.23 55.07 55.07 0 0 1 14.58 38.07l.27 55.35a1.19 1.19 0 0 1-1.35 1.35h-30.53q-1.08 0-1.08-.81V807.3a23.56 23.56 0 0 0-6.88-16.88 22.56 22.56 0 0 0-16.88-7.15h-17.82l-.27 79.38q0 1.35-1.08 1.35zm31.86-113.13h23.22a20.86 20.86 0 0 0 14.85-6.21 20.72 20.72 0 0 0 .14-30 20.72 20.72 0 0 0-15-6.21h-23.21z"/><path class="b" d="M240.73 1060a.93.93 0 0 1-1-1l.21-22.89 51.45-98.28h-48.77a.74.74 0 0 1-.84-.84v-22.1q0-1 .84-1h76a.93.93 0 0 1 1.05 1v22.68l-51.24 97.86h50.61q.84 0 .84 1l.21 22.47a.93.93 0 0 1-1.05 1zM372 1062.1a38.82 38.82 0 0 1-20.58-5.77 42.92 42.92 0 0 1-15-15.44 41.73 41.73 0 0 1-5.56-21.21l.42-105a.74.74 0 0 1 .84-.84h23.48a.74.74 0 0 1 .84.84v105a17.2 17.2 0 0 0 4.51 12.07 14.36 14.36 0 0 0 11 4.94 14.57 14.57 0 0 0 11.23-4.94 17.21 17.21 0 0 0 4.52-12.07v-105a.74.74 0 0 1 .84-.84h23.52a.74.74 0 0 1 .84.84l.42 105a42.55 42.55 0 0 1-20.48 36.75 39.47 39.47 0 0 1-20.84 5.67zM430.78 1060c-.57 0-.84-.35-.84-1l.42-144.27a.74.74 0 0 1 .84-.84h42.42a40.79 40.79 0 0 1 20.89 5.57 42.59 42.59 0 0 1 15.23 14.91 42.5 42.5 0 0 1 3.35 35.06 42.66 42.66 0 0 1-5.46 10.5 35.46 35.46 0 0 1-5.67 6.41 42.79 42.79 0 0 1 11.34 29.61l.22 43.05a.94.94 0 0 1-1.06 1h-23.72c-.57 0-.84-.21-.84-.63v-43.47a18.3 18.3 0 0 0-5.36-13.12 17.52 17.52 0 0 0-13.12-5.57h-13.87l-.21 61.74q0 1-.84 1zm24.77-88h18.07a16.26 16.26 0 0 0 11.55-4.83 16.11 16.11 0 0 0 .1-23.31 16.11 16.11 0 0 0-11.65-4.86h-18.07zM532.2 1060a.93.93 0 0 1-1.05-1l.21-144.27a.74.74 0 0 1 .84-.84h23.52a.74.74 0 0 1 .84.84l.21 144.27q0 1-.84 1zM613.89 1062.1a39 39 0 0 1-20.89-5.77 42.35 42.35 0 0 1-14.81-15.44 43.18 43.18 0 0 1-5.46-21.63l.21-65.52a42.48 42.48 0 0 1 5.36-21.11A41.88 41.88 0 0 1 593 917.3a40.82 40.82 0 0 1 41.68-.1 42.19 42.19 0 0 1 20.16 36.54v9.66a.74.74 0 0 1-.84.84h-23.52a.74.74 0 0 1-.84-.84v-9.66a17.34 17.34 0 0 0-4.51-12 14.48 14.48 0 0 0-11.24-5q-7.56 0-11.55 5.15a18.81 18.81 0 0 0-4 11.86v65.52q0 7.77 4.52 12.6a14.51 14.51 0 0 0 11 4.83 14.1 14.1 0 0 0 11.24-5.36 18.22 18.22 0 0 0 4.51-12.07v-9.66a.74.74 0 0 1 .84-.84h23.73a.74.74 0 0 1 .84.84v9.66a42.54 42.54 0 0 1-5.56 21.63 43.51 43.51 0 0 1-14.81 15.44 38.5 38.5 0 0 1-20.76 5.76zM671.22 1060q-.84 0-.84-1l.21-144.27q0-.84 1-.84H695q1 0 1 .84l-.21 57.12h31.5v-57.17a.74.74 0 0 1 .84-.84h23.31q1 0 1 .84l.42 144.27a.93.93 0 0 1-1 1h-23.52a.93.93 0 0 1-1.05-1v-61.74h-31.5V1059q0 1-.84 1z"/></svg>