<?xml version="1.0" ?><!DOCTYPE svg  PUBLIC '-//W3C//DTD SVG 1.1//EN'  'http://www.w3.org/Graphics/SVG/1.1/DTD/svg11.dtd'><svg height="512px" style="enable-background:new 0 0 512 512;" version="1.1" viewBox="0 0 512 512" width="512px" xml:space="preserve" xmlns="http://www.w3.org/2000/svg" xmlns:xlink="http://www.w3.org/1999/xlink"><g id="_x33_3-slack_x2C__chat"><g><g><g><path d="M326.684,45.84c-7.254-22.369-31.229-34.631-53.568-27.361      c-22.338,7.261-34.539,31.308-27.287,53.705l109.904,339.108c7.547,20.901,30.064,32.657,51.715,26.438      c22.547-6.522,36.33-30.54,29.111-52.759C436.287,384.105,326.684,45.84,326.684,45.84L326.684,45.84z M326.684,45.84" style="fill:#FFC107;"/><path d="M156.381,101.345c-7.286-22.401-31.262-34.665-53.568-27.366      c-22.313,7.299-34.566,31.312-27.292,53.709L185.43,466.764c7.547,20.907,30.064,32.662,51.717,26.438      c22.547-6.52,36.328-30.534,29.109-52.753C265.984,439.607,156.381,101.345,156.381,101.345L156.381,101.345z M156.381,101.345" style="fill:#5ACF5F;"/><path d="M465.039,326.688c22.336-7.269,34.537-31.314,27.291-53.715      c-7.248-22.401-31.225-34.627-53.563-27.365L100.577,355.844c-20.851,7.565-32.568,30.146-26.367,51.857      c6.502,22.609,30.455,36.428,52.612,29.19C127.684,436.59,465.039,326.688,465.039,326.688L465.039,326.688z M465.039,326.688" style="fill:#F4427E;"/></g><path d="M171.053,422.477c22.007-7.181,50.376-16.421,80.826-26.35     c-7.158-22.066-16.373-50.514-26.277-81.046l-80.827,26.347L171.053,422.477z M171.053,422.477" style="fill:#6B3F6E;"/><g><path d="M341.385,366.972c30.568-9.962,58.963-19.2,80.828-26.348      c-7.162-22.073-16.377-50.546-26.275-81.075l-80.828,26.347L341.385,366.972z M341.385,366.972" style="fill:#E0232B;"/><path d="M409.686,155.921c22.338-7.27,34.535-31.312,27.291-53.708      c-7.252-22.403-31.229-34.631-53.566-27.366L45.25,185.05c-20.878,7.565-32.597,30.145-26.367,51.857      c6.502,22.614,30.454,36.393,52.612,29.189C72.33,265.826,409.686,155.921,409.686,155.921L409.686,155.921z M409.686,155.921" style="fill:#2299F8;"/></g><path d="M115.694,251.683c22.012-7.177,50.408-16.416,80.861-26.349     c-9.936-30.624-19.15-59.097-26.28-81.041l-80.827,26.342L115.694,251.683z M115.694,251.683" style="fill:#20B89C;"/><path d="M286.027,196.207c30.572-9.962,58.965-19.202,80.859-26.346     c-9.936-30.662-19.18-59.127-26.277-81.08l-80.859,26.348L286.027,196.207z M286.027,196.207" style="fill:#81AB4A;"/></g></g></g><g id="Layer_1"/></svg>