<svg width="135" height="49" viewBox="0 0 135 49" fill="none" xmlns="http://www.w3.org/2000/svg">
<path d="M70.7819 26.992C70.7819 25.519 71.2483 24.0395 72.276 22.9558C73.3403 21.8033 74.855 21.2586 76.4058 21.2586C77.4349 21.2586 78.4664 21.4575 79.4149 21.8588L78.7716 24.3219C78.0914 24.0635 77.3844 23.908 76.6548 23.908C75.7417 23.908 75.0569 24.1908 74.6003 24.7566C74.1576 25.3224 73.9362 26.0675 73.9362 26.992C73.9362 27.9718 74.1438 28.7307 74.5588 29.2689C74.9877 29.807 75.7279 30.0761 76.7793 30.0761C77.5838 30.0761 78.4218 29.9554 79.1659 29.6415L79.6017 32.1667C78.6231 32.5796 77.5231 32.7255 76.4681 32.7255C75.4719 32.7255 74.6142 32.5806 73.8947 32.2909C71.7224 31.3742 70.7819 29.2778 70.7819 26.992Z" fill="black"/>
<path d="M91.357 26.9692C91.357 29.1957 90.3713 31.4082 88.2026 32.3094C87.5524 32.5854 86.8191 32.7234 86.0028 32.7234C85.2004 32.7234 84.4671 32.5854 83.8031 32.3094C81.6814 31.409 80.6279 29.2024 80.6279 26.9692C80.6279 24.7243 81.7268 22.5692 83.8446 21.6704C84.5087 21.3944 85.2281 21.2565 86.0028 21.2565C86.7914 21.2565 87.5109 21.3944 88.1611 21.6704C90.2873 22.554 91.357 24.7339 91.357 26.9692ZM88.2026 26.9692C88.2026 25.5837 87.6511 23.9059 86.0028 23.9059C84.3449 23.9059 83.7823 25.5708 83.7823 26.9692C83.7823 28.3749 84.3282 30.074 86.0028 30.074C87.6677 30.074 88.2026 28.3618 88.2026 26.9692Z" fill="black"/>
<path d="M97.9164 30.3397C98.4254 30.3397 98.9486 30.3406 99.4521 30.2569V27.918C99.0488 27.8286 98.6194 27.7938 98.207 27.7938C97.3471 27.7938 96.0902 27.9383 96.0902 29.0564C96.0902 30.1111 97.022 30.3397 97.9164 30.3397ZM99.9502 21.6257C101.799 22.2544 102.42 23.9758 102.42 25.7654V32.1819C100.869 32.5202 99.2972 32.7201 97.7089 32.7201C96.1002 32.7201 94.133 32.4247 93.3509 30.8158C93.1295 30.3604 93.0188 29.8016 93.0188 29.1392C93.0188 28.0424 93.4752 27.0528 94.43 26.4691C95.6512 25.7226 97.2996 25.5977 98.6843 25.7861C99.0025 25.8137 99.2584 25.8551 99.4521 25.9102C99.4521 25.3417 99.4027 24.7846 98.9748 24.3579C97.9848 23.3705 95.548 23.9035 94.43 24.3165L94.0357 21.8326C95.8397 21.279 98.1193 21.0031 99.9502 21.6257Z" fill="black"/>
<path d="M109.583 32.7202C108.375 32.7017 106.974 32.5634 106.055 31.6853C105.345 30.9457 105.225 29.9138 105.225 28.9324V16.9479L108.317 16.4512V28.3114C108.317 28.7471 108.341 29.2496 108.608 29.6154C108.946 30.0275 109.515 30.1371 110.019 30.1743L109.583 32.7202Z" fill="black"/>
<path d="M114.878 32.72H111.786V21.4785H114.878V32.72ZM115.169 18.3323C115.169 19.374 114.363 20.1537 113.322 20.1537C112.266 20.1537 111.475 19.3865 111.475 18.3323C111.475 17.2934 112.279 16.5108 113.322 16.5108C114.35 16.5108 115.169 17.3059 115.169 18.3323Z" fill="black"/>
<path d="M120.933 30.2155C121.541 30.2155 122.49 30.2261 122.49 29.4083C122.49 28.6754 121.158 28.3192 120.643 28.125C118.923 27.4881 117.447 26.532 117.447 24.5648C117.447 23.5437 117.827 22.7365 118.588 22.1431C119.962 21.0715 121.995 21.1056 123.631 21.4394C124.24 21.5498 124.724 21.674 125.084 21.8119L124.544 24.213C123.705 23.9233 122.841 23.7369 121.95 23.7369C120.982 23.7369 120.497 24.006 120.497 24.5441C120.497 25.0408 120.924 25.2513 121.307 25.4549C122.143 25.8197 123.019 26.0828 123.818 26.5312C124.512 26.8989 125.176 27.4684 125.395 28.2492C125.811 29.5446 125.509 31.0992 124.337 31.8921C123.534 32.4441 122.393 32.7201 120.912 32.7201C119.655 32.7201 118.32 32.5735 117.156 32.0577L117.675 29.5532C118.717 29.9632 119.81 30.2155 120.933 30.2155Z" fill="black"/>
<path d="M127.757 18.8728L130.849 18.376V21.5843H134.564V24.1509H130.849V27.9801C130.849 28.6287 130.96 29.1461 131.182 29.5325C131.804 30.5555 133.627 30.1164 134.564 29.7602L135 32.1612C134.061 32.5427 133.087 32.7201 132.074 32.7201C131.23 32.7201 130.531 32.6097 129.978 32.3889C128.908 31.9355 128.212 31.0693 127.944 29.9465C127.82 29.3669 127.757 28.7252 127.757 28.0215V18.8728Z" fill="black"/>
<path d="M40.0996 11.1016C40.8248 11.1016 41.4127 10.5157 41.4127 9.79297C41.4127 9.07025 40.8248 8.48438 40.0996 8.48438C39.3743 8.48438 38.7864 9.07025 38.7864 9.79297C38.7864 10.5157 39.3743 11.1016 40.0996 11.1016Z" fill="#FE2E01"/>
<path d="M40.5569 8.3269C41.2822 8.3269 41.8701 7.74103 41.8701 7.01831C41.8701 6.29559 41.2822 5.70972 40.5569 5.70972C39.8317 5.70972 39.2438 6.29559 39.2438 7.01831C39.2438 7.74103 39.8317 8.3269 40.5569 8.3269Z" fill="#FE2E01"/>
<path d="M37.6534 8.4375C38.3787 8.4375 38.9666 7.85162 38.9666 7.12891C38.9666 6.40619 38.3787 5.82031 37.6534 5.82031C36.9282 5.82031 36.3403 6.40619 36.3403 7.12891C36.3403 7.85162 36.9282 8.4375 37.6534 8.4375Z" fill="#FE2E01"/>
<path d="M43.3516 8.65234C44.0769 8.65234 44.6648 8.06646 44.6648 7.34375C44.6648 6.62103 44.0769 6.03516 43.3516 6.03516C42.6264 6.03516 42.0385 6.62103 42.0385 7.34375C42.0385 8.06646 42.6264 8.65234 43.3516 8.65234Z" fill="#FE2E01"/>
<path d="M42.913 11.3816C43.6383 11.3816 44.2262 10.7957 44.2262 10.073C44.2262 9.35028 43.6383 8.7644 42.913 8.7644C42.1878 8.7644 41.5999 9.35028 41.5999 10.073C41.5999 10.7957 42.1878 11.3816 42.913 11.3816Z" fill="#FE2E01"/>
<path d="M46.1013 9.42578C46.8266 9.42578 47.4145 8.8399 47.4145 8.11719C47.4145 7.39447 46.8266 6.80859 46.1013 6.80859C45.3761 6.80859 44.7881 7.39447 44.7881 8.11719C44.7881 8.8399 45.3761 9.42578 46.1013 9.42578Z" fill="#FE2E01"/>
<path d="M43.1375 5.79272C43.8628 5.79272 44.4507 5.20684 44.4507 4.48413C44.4507 3.76141 43.8628 3.17554 43.1375 3.17554C42.4123 3.17554 41.8243 3.76141 41.8243 4.48413C41.8243 5.20684 42.4123 5.79272 43.1375 5.79272Z" fill="#FE2E01"/>
<path d="M45.908 6.4414C46.6332 6.4414 47.2212 5.85552 47.2212 5.13281C47.2212 4.41009 46.6332 3.82422 45.908 3.82422C45.1828 3.82422 44.5948 4.41009 44.5948 5.13281C44.5948 5.85552 45.1828 6.4414 45.908 6.4414Z" fill="#FE2E01"/>
<path d="M48.5926 7.45459C49.3178 7.45459 49.9058 6.86871 49.9058 6.14599C49.9058 5.42328 49.3178 4.8374 48.5926 4.8374C47.8673 4.8374 47.2794 5.42328 47.2794 6.14599C47.2794 6.86871 47.8673 7.45459 48.5926 7.45459Z" fill="#FE2E01"/>
<path d="M48.7124 10.5859C49.4377 10.5859 50.0256 10.0001 50.0256 9.27734C50.0256 8.55463 49.4377 7.96875 48.7124 7.96875C47.9872 7.96875 47.3992 8.55463 47.3992 9.27734C47.3992 10.0001 47.9872 10.5859 48.7124 10.5859Z" fill="#FE2E01"/>
<path d="M45.653 12.2148C46.3782 12.2148 46.9661 11.629 46.9661 10.9062C46.9661 10.1835 46.3782 9.59766 45.653 9.59766C44.9277 9.59766 44.3398 10.1835 44.3398 10.9062C44.3398 11.629 44.9277 12.2148 45.653 12.2148Z" fill="#FE2E01"/>
<path d="M44.3108 14.6548C45.036 14.6548 45.624 14.0689 45.624 13.3462C45.624 12.6235 45.036 12.0376 44.3108 12.0376C43.5855 12.0376 42.9976 12.6235 42.9976 13.3462C42.9976 14.0689 43.5855 14.6548 44.3108 14.6548Z" fill="#FE2E01"/>
<path d="M46.8102 15.978C47.5355 15.978 48.1234 15.3921 48.1234 14.6694C48.1234 13.9467 47.5355 13.3608 46.8102 13.3608C46.085 13.3608 45.4971 13.9467 45.4971 14.6694C45.4971 15.3921 46.085 15.978 46.8102 15.978Z" fill="#FE2E01"/>
<path d="M49.0277 17.8125C49.753 17.8125 50.3409 17.2266 50.3409 16.5039C50.3409 15.7812 49.753 15.1953 49.0277 15.1953C48.3025 15.1953 47.7145 15.7812 47.7145 16.5039C47.7145 17.2266 48.3025 17.8125 49.0277 17.8125Z" fill="#FE2E01"/>
<path d="M48.1789 13.53C48.9041 13.53 49.492 12.9441 49.492 12.2214C49.492 11.4987 48.9041 10.9128 48.1789 10.9128C47.4536 10.9128 46.8657 11.4987 46.8657 12.2214C46.8657 12.9441 47.4536 13.53 48.1789 13.53Z" fill="#FE2E01"/>
<path d="M50.4663 15.3672C51.1915 15.3672 51.7795 14.7813 51.7795 14.0586C51.7795 13.3359 51.1915 12.75 50.4663 12.75C49.7411 12.75 49.1531 13.3359 49.1531 14.0586C49.1531 14.7813 49.7411 15.3672 50.4663 15.3672Z" fill="#FE2E01"/>
<path d="M53.2188 14.1262C53.944 14.1262 54.5319 13.5403 54.5319 12.8176C54.5319 12.0949 53.944 11.509 53.2188 11.509C52.4935 11.509 51.9056 12.0949 51.9056 12.8176C51.9056 13.5403 52.4935 14.1262 53.2188 14.1262Z" fill="#FE2E01"/>
<path d="M55.0121 16.3853C55.7373 16.3853 56.3253 15.7994 56.3253 15.0767C56.3253 14.3539 55.7373 13.7681 55.0121 13.7681C54.2868 13.7681 53.6989 14.3539 53.6989 15.0767C53.6989 15.7994 54.2868 16.3853 55.0121 16.3853Z" fill="#FE2E01"/>
<path d="M56.2823 13.4543C57.0075 13.4543 57.5955 12.8685 57.5955 12.1457C57.5955 11.423 57.0075 10.8372 56.2823 10.8372C55.557 10.8372 54.9691 11.423 54.9691 12.1457C54.9691 12.8685 55.557 13.4543 56.2823 13.4543Z" fill="#FE2E01"/>
<path d="M55.8624 8.72266C56.5876 8.72266 57.1756 8.13678 57.1756 7.41406C57.1756 6.69135 56.5876 6.10547 55.8624 6.10547C55.1371 6.10547 54.5492 6.69135 54.5492 7.41406C54.5492 8.13678 55.1371 8.72266 55.8624 8.72266Z" fill="#FE2E01"/>
<path d="M57.9337 15.7603C58.6589 15.7603 59.2468 15.1744 59.2468 14.4517C59.2468 13.7289 58.6589 13.1431 57.9337 13.1431C57.2084 13.1431 56.6205 13.7289 56.6205 14.4517C56.6205 15.1744 57.2084 15.7603 57.9337 15.7603Z" fill="#FE2E01"/>
<path d="M56.4153 18.8437C57.1406 18.8437 57.7285 18.2579 57.7285 17.5352C57.7285 16.8124 57.1406 16.2266 56.4153 16.2266C55.6901 16.2266 55.1022 16.8124 55.1022 17.5352C55.1022 18.2579 55.6901 18.8437 56.4153 18.8437Z" fill="#FE2E01"/>
<path d="M59.2461 18.3215C59.9713 18.3215 60.5593 17.7357 60.5593 17.0129C60.5593 16.2902 59.9713 15.7043 59.2461 15.7043C58.5209 15.7043 57.9329 16.2902 57.9329 17.0129C57.9329 17.7357 58.5209 18.3215 59.2461 18.3215Z" fill="#FE2E01"/>
<path d="M57.4305 21.509C58.1558 21.509 58.7437 20.9232 58.7437 20.2004C58.7437 19.4777 58.1558 18.8918 57.4305 18.8918C56.7053 18.8918 56.1174 19.4777 56.1174 20.2004C56.1174 20.9232 56.7053 21.509 57.4305 21.509Z" fill="#FE2E01"/>
<path d="M60.1802 21.0247C60.9055 21.0247 61.4934 20.4388 61.4934 19.7161C61.4934 18.9933 60.9055 18.4075 60.1802 18.4075C59.455 18.4075 58.8671 18.9933 58.8671 19.7161C58.8671 20.4388 59.455 21.0247 60.1802 21.0247Z" fill="#FE2E01"/>
<path d="M63.2598 21.2122C63.985 21.2122 64.5729 20.6263 64.5729 19.9036C64.5729 19.1808 63.985 18.595 63.2598 18.595C62.5345 18.595 61.9466 19.1808 61.9466 19.9036C61.9466 20.6263 62.5345 21.2122 63.2598 21.2122Z" fill="#FE2E01"/>
<path d="M60.727 23.8281C61.4522 23.8281 62.0402 23.2422 62.0402 22.5195C62.0402 21.7968 61.4522 21.2109 60.727 21.2109C60.0017 21.2109 59.4138 21.7968 59.4138 22.5195C59.4138 23.2422 60.0017 23.8281 60.727 23.8281Z" fill="#FE2E01"/>
<path d="M60.9147 26.6577C61.64 26.6577 62.2279 26.0718 62.2279 25.3491C62.2279 24.6264 61.64 24.0405 60.9147 24.0405C60.1895 24.0405 59.6016 24.6264 59.6016 25.3491C59.6016 26.0718 60.1895 26.6577 60.9147 26.6577Z" fill="#FE2E01"/>
<path d="M55.3129 25.4231C56.0381 25.4231 56.626 24.8372 56.626 24.1145C56.626 23.3918 56.0381 22.8059 55.3129 22.8059C54.5876 22.8059 53.9997 23.3918 53.9997 24.1145C53.9997 24.8372 54.5876 25.4231 55.3129 25.4231Z" fill="#FE2E01"/>
<path d="M52.5071 25.4348C53.2324 25.4348 53.8203 24.8489 53.8203 24.1262C53.8203 23.4035 53.2324 22.8176 52.5071 22.8176C51.7818 22.8176 51.1939 23.4035 51.1939 24.1262C51.1939 24.8489 51.7818 25.4348 52.5071 25.4348Z" fill="#FE2E01"/>
<path d="M52.4516 28.302C53.1768 28.302 53.7647 27.7161 53.7647 26.9934C53.7647 26.2707 53.1768 25.6848 52.4516 25.6848C51.7263 25.6848 51.1384 26.2707 51.1384 26.9934C51.1384 27.7161 51.7263 28.302 52.4516 28.302Z" fill="#FE2E01"/>
<path d="M55.2747 28.2539C56 28.2539 56.5879 27.668 56.5879 26.9453C56.5879 26.2226 56 25.6367 55.2747 25.6367C54.5495 25.6367 53.9615 26.2226 53.9615 26.9453C53.9615 27.668 54.5495 28.2539 55.2747 28.2539Z" fill="#FE2E01"/>
<path d="M57.7043 30.6418C58.4295 30.6418 59.0175 30.056 59.0175 29.3332C59.0175 28.6105 58.4295 28.0247 57.7043 28.0247C56.979 28.0247 56.3911 28.6105 56.3911 29.3332C56.3911 30.056 56.979 30.6418 57.7043 30.6418Z" fill="#FE2E01"/>
<path d="M60.7401 29.5313C61.4654 29.5313 62.0533 28.9454 62.0533 28.2227C62.0533 27.4999 61.4654 26.9141 60.7401 26.9141C60.0149 26.9141 59.4269 27.4999 59.4269 28.2227C59.4269 28.9454 60.0149 29.5313 60.7401 29.5313Z" fill="#FE2E01"/>
<path d="M60.1456 32.2891C60.8708 32.2891 61.4588 31.7032 61.4588 30.9805C61.4588 30.2578 60.8708 29.6719 60.1456 29.6719C59.4203 29.6719 58.8324 30.2578 58.8324 30.9805C58.8324 31.7032 59.4203 32.2891 60.1456 32.2891Z" fill="#FE2E01"/>
<path d="M56.8533 33.3579C57.5786 33.3579 58.1665 32.772 58.1665 32.0493C58.1665 31.3266 57.5786 30.7407 56.8533 30.7407C56.1281 30.7407 55.5402 31.3266 55.5402 32.0493C55.5402 32.772 56.1281 33.3579 56.8533 33.3579Z" fill="#FE2E01"/>
<path d="M51.7656 31.0728C52.4908 31.0728 53.0787 30.4869 53.0787 29.7642C53.0787 29.0414 52.4908 28.4556 51.7656 28.4556C51.0403 28.4556 50.4524 29.0414 50.4524 29.7642C50.4524 30.4869 51.0403 31.0728 51.7656 31.0728Z" fill="#FE2E01"/>
<path d="M50.4857 33.6133C51.211 33.6133 51.7989 33.0274 51.7989 32.3047C51.7989 31.582 51.211 30.9961 50.4857 30.9961C49.7605 30.9961 49.1725 31.582 49.1725 32.3047C49.1725 33.0274 49.7605 33.6133 50.4857 33.6133Z" fill="#FE2E01"/>
<path d="M48.6667 35.8035C49.3919 35.8035 49.9799 35.2176 49.9799 34.4949C49.9799 33.7722 49.3919 33.1863 48.6667 33.1863C47.9414 33.1863 47.3535 33.7722 47.3535 34.4949C47.3535 35.2176 47.9414 35.8035 48.6667 35.8035Z" fill="#FE2E01"/>
<path d="M46.4063 37.5366C47.1315 37.5366 47.7194 36.9507 47.7194 36.228C47.7194 35.5053 47.1315 34.9194 46.4063 34.9194C45.681 34.9194 45.0931 35.5053 45.0931 36.228C45.0931 36.9507 45.681 37.5366 46.4063 37.5366Z" fill="#FE2E01"/>
<path d="M43.809 38.741C44.5343 38.741 45.1222 38.1551 45.1222 37.4324C45.1222 36.7097 44.5343 36.1238 43.809 36.1238C43.0838 36.1238 42.4958 36.7097 42.4958 37.4324C42.4958 38.1551 43.0838 38.741 43.809 38.741Z" fill="#FE2E01"/>
<path d="M29.1841 33.8396C29.9093 33.8396 30.4973 33.2537 30.4973 32.531C30.4973 31.8083 29.9093 31.2224 29.1841 31.2224C28.4588 31.2224 27.8709 31.8083 27.8709 32.531C27.8709 33.2537 28.4588 33.8396 29.1841 33.8396Z" fill="#FE2E01"/>
<path d="M26.8446 35.3726C27.5699 35.3726 28.1578 34.7867 28.1578 34.064C28.1578 33.3412 27.5699 32.7554 26.8446 32.7554C26.1194 32.7554 25.5314 33.3412 25.5314 34.064C25.5314 34.7867 26.1194 35.3726 26.8446 35.3726Z" fill="#FE2E01"/>
<path d="M25.4608 32.8672C26.186 32.8672 26.774 32.2813 26.774 31.5586C26.774 30.8359 26.186 30.25 25.4608 30.25C24.7355 30.25 24.1476 30.8359 24.1476 31.5586C24.1476 32.2813 24.7355 32.8672 25.4608 32.8672Z" fill="#FE2E01"/>
<path d="M24.411 36.7332C25.1362 36.7332 25.7242 36.1473 25.7242 35.4246C25.7242 34.7018 25.1362 34.116 24.411 34.116C23.6857 34.116 23.0978 34.7018 23.0978 35.4246C23.0978 36.1473 23.6857 36.7332 24.411 36.7332Z" fill="#FE2E01"/>
<path d="M20.5414 35.4907C21.2667 35.4907 21.8546 34.9048 21.8546 34.1821C21.8546 33.4594 21.2667 32.8735 20.5414 32.8735C19.8162 32.8735 19.2283 33.4594 19.2283 34.1821C19.2283 34.9048 19.8162 35.4907 20.5414 35.4907Z" fill="#FE2E01"/>
<path d="M19.5248 32.8359C20.2501 32.8359 20.838 32.2501 20.838 31.5273C20.838 30.8046 20.2501 30.2188 19.5248 30.2188C18.7996 30.2188 18.2117 30.8046 18.2117 31.5273C18.2117 32.2501 18.7996 32.8359 19.5248 32.8359Z" fill="#FE2E01"/>
<path d="M18.8589 30.0586C19.5841 30.0586 20.1721 29.4727 20.1721 28.75C20.1721 28.0273 19.5841 27.4414 18.8589 27.4414C18.1336 27.4414 17.5457 28.0273 17.5457 28.75C17.5457 29.4727 18.1336 30.0586 18.8589 30.0586Z" fill="#FE2E01"/>
<path d="M22.0535 31.5535C22.7787 31.5535 23.3666 30.9676 23.3666 30.2449C23.3666 29.5222 22.7787 28.9363 22.0535 28.9363C21.3282 28.9363 20.7403 29.5222 20.7403 30.2449C20.7403 30.9676 21.3282 31.5535 22.0535 31.5535Z" fill="#FE2E01"/>
<path d="M24.571 30.1548C25.2962 30.1548 25.8842 29.5689 25.8842 28.8462C25.8842 28.1235 25.2962 27.5376 24.571 27.5376C23.8457 27.5376 23.2578 28.1235 23.2578 28.8462C23.2578 29.5689 23.8457 30.1548 24.571 30.1548Z" fill="#FE2E01"/>
<path d="M27.8251 31.3267C28.5504 31.3267 29.1383 30.7408 29.1383 30.0181C29.1383 29.2953 28.5504 28.7095 27.8251 28.7095C27.0999 28.7095 26.512 29.2953 26.512 30.0181C26.512 30.7408 27.0999 31.3267 27.8251 31.3267Z" fill="#FE2E01"/>
<path d="M27.0802 28.5522C27.8054 28.5522 28.3934 27.9664 28.3934 27.2436C28.3934 26.5209 27.8054 25.9351 27.0802 25.9351C26.355 25.9351 25.767 26.5209 25.767 27.2436C25.767 27.9664 26.355 28.5522 27.0802 28.5522Z" fill="#FE2E01"/>
<path d="M24.1698 27.3491C24.8951 27.3491 25.483 26.7632 25.483 26.0405C25.483 25.3178 24.8951 24.7319 24.1698 24.7319C23.4446 24.7319 22.8566 25.3178 22.8566 26.0405C22.8566 26.7632 23.4446 27.3491 24.1698 27.3491Z" fill="#FE2E01"/>
<path d="M21.488 28.771C22.2133 28.771 22.8012 28.1851 22.8012 27.4624C22.8012 26.7397 22.2133 26.1538 21.488 26.1538C20.7628 26.1538 20.1749 26.7397 20.1749 27.4624C20.1749 28.1851 20.7628 28.771 21.488 28.771Z" fill="#FE2E01"/>
<path d="M21.3792 25.9194C22.1045 25.9194 22.6924 25.3335 22.6924 24.6108C22.6924 23.8881 22.1045 23.3022 21.3792 23.3022C20.654 23.3022 20.066 23.8881 20.066 24.6108C20.066 25.3335 20.654 25.9194 21.3792 25.9194Z" fill="#FE2E01"/>
<path d="M24.298 24.4883C25.0232 24.4883 25.6111 23.9024 25.6111 23.1797C25.6111 22.457 25.0232 21.8711 24.298 21.8711C23.5727 21.8711 22.9848 22.457 22.9848 23.1797C22.9848 23.9024 23.5727 24.4883 24.298 24.4883Z" fill="#FE2E01"/>
<path d="M26.9694 25.7188C27.6946 25.7188 28.2826 25.1329 28.2826 24.4102C28.2826 23.6874 27.6946 23.1016 26.9694 23.1016C26.2441 23.1016 25.6562 23.6874 25.6562 24.4102C25.6562 25.1329 26.2441 25.7188 26.9694 25.7188Z" fill="#FE2E01"/>
<path d="M27.4814 22.9102C28.2067 22.9102 28.7946 22.3243 28.7946 21.6016C28.7946 20.8788 28.2067 20.293 27.4814 20.293C26.7562 20.293 26.1683 20.8788 26.1683 21.6016C26.1683 22.3243 26.7562 22.9102 27.4814 22.9102Z" fill="#FE2E01"/>
<path d="M24.9501 21.7161C25.6753 21.7161 26.2633 21.1302 26.2633 20.4075C26.2633 19.6848 25.6753 19.0989 24.9501 19.0989C24.2248 19.0989 23.6369 19.6848 23.6369 20.4075C23.6369 21.1302 24.2248 21.7161 24.9501 21.7161Z" fill="#FE2E01"/>
<path d="M21.7139 23.0925C22.4392 23.0925 23.0271 22.5067 23.0271 21.7839C23.0271 21.0612 22.4392 20.4753 21.7139 20.4753C20.9887 20.4753 20.4008 21.0612 20.4008 21.7839C20.4008 22.5067 20.9887 23.0925 21.7139 23.0925Z" fill="#FE2E01"/>
<path d="M19.1909 21.5535C19.9161 21.5535 20.5041 20.9676 20.5041 20.2449C20.5041 19.5222 19.9161 18.9363 19.1909 18.9363C18.4656 18.9363 17.8777 19.5222 17.8777 20.2449C17.8777 20.9676 18.4656 21.5535 19.1909 21.5535Z" fill="#FE2E01"/>
<path d="M20.066 18.8396C20.7913 18.8396 21.3792 18.2537 21.3792 17.531C21.3792 16.8083 20.7913 16.2224 20.066 16.2224C19.3408 16.2224 18.7529 16.8083 18.7529 17.531C18.7529 18.2537 19.3408 18.8396 20.066 18.8396Z" fill="#FE2E01"/>
<path d="M22.4734 20.3359C23.1986 20.3359 23.7866 19.7501 23.7866 19.0273C23.7866 18.3046 23.1986 17.7188 22.4734 17.7188C21.7481 17.7188 21.1602 18.3046 21.1602 19.0273C21.1602 19.7501 21.7481 20.3359 22.4734 20.3359Z" fill="#FE2E01"/>
<path d="M26.0796 19.1172C26.8049 19.1172 27.3928 18.5313 27.3928 17.8086C27.3928 17.0859 26.8049 16.5 26.0796 16.5C25.3544 16.5 24.7664 17.0859 24.7664 17.8086C24.7664 18.5313 25.3544 19.1172 26.0796 19.1172Z" fill="#FE2E01"/>
<path d="M28.6089 20.3047C29.3341 20.3047 29.9221 19.7188 29.9221 18.9961C29.9221 18.2734 29.3341 17.6875 28.6089 17.6875C27.8836 17.6875 27.2957 18.2734 27.2957 18.9961C27.2957 19.7188 27.8836 20.3047 28.6089 20.3047Z" fill="#FE2E01"/>
<path d="M23.675 17.7449C24.4002 17.7449 24.9881 17.159 24.9881 16.4363C24.9881 15.7136 24.4002 15.1277 23.675 15.1277C22.9497 15.1277 22.3618 15.7136 22.3618 16.4363C22.3618 17.159 22.9497 17.7449 23.675 17.7449Z" fill="#FE2E01"/>
<path d="M18.5817 27.2085C19.307 27.2085 19.8949 26.6226 19.8949 25.8999C19.8949 25.1772 19.307 24.5913 18.5817 24.5913C17.8565 24.5913 17.2686 25.1772 17.2686 25.8999C17.2686 26.6226 17.8565 27.2085 18.5817 27.2085Z" fill="#FE2E01"/>
<path d="M44.7473 41.3594C45.4725 41.3594 46.0605 40.7735 46.0605 40.0508C46.0605 39.3281 45.4725 38.7422 44.7473 38.7422C44.022 38.7422 43.4341 39.3281 43.4341 40.0508C43.4341 40.7735 44.022 41.3594 44.7473 41.3594Z" fill="#FE2E01"/>
<path d="M44.4555 44.3359C45.1808 44.3359 45.7687 43.7501 45.7687 43.0273C45.7687 42.3046 45.1808 41.7188 44.4555 41.7188C43.7303 41.7188 43.1423 42.3046 43.1423 43.0273C43.1423 43.7501 43.7303 44.3359 44.4555 44.3359Z" fill="#FE2E01"/>
<path d="M48.5481 49C49.2734 49 49.8613 48.4141 49.8613 47.6914C49.8613 46.9687 49.2734 46.3828 48.5481 46.3828C47.8229 46.3828 47.235 46.9687 47.235 47.6914C47.235 48.4141 47.8229 49 48.5481 49Z" fill="#FE2E01"/>
<path d="M44.2899 47.2227C45.0151 47.2227 45.6031 46.6368 45.6031 45.9141C45.6031 45.1913 45.0151 44.6055 44.2899 44.6055C43.5647 44.6055 42.9767 45.1913 42.9767 45.9141C42.9767 46.6368 43.5647 47.2227 44.2899 47.2227Z" fill="#FE2E01"/>
<path d="M41.6463 44.8345C42.3715 44.8345 42.9595 44.2486 42.9595 43.5259C42.9595 42.8032 42.3715 42.2173 41.6463 42.2173C40.9211 42.2173 40.3331 42.8032 40.3331 43.5259C40.3331 44.2486 40.9211 44.8345 41.6463 44.8345Z" fill="#FE2E01"/>
<path d="M41.9761 41.9819C42.7014 41.9819 43.2893 41.3961 43.2893 40.6733C43.2893 39.9506 42.7014 39.3647 41.9761 39.3647C41.2509 39.3647 40.663 39.9506 40.663 40.6733C40.663 41.3961 41.2509 41.9819 41.9761 41.9819Z" fill="#FE2E01"/>
<path d="M38.7878 44.9167C39.513 44.9167 40.101 44.3309 40.101 43.6082C40.101 42.8854 39.513 42.2996 38.7878 42.2996C38.0625 42.2996 37.4746 42.8854 37.4746 43.6082C37.4746 44.3309 38.0625 44.9167 38.7878 44.9167Z" fill="#FE2E01"/>
<path d="M41.4585 47.6533C42.1838 47.6533 42.7717 47.0674 42.7717 46.3447C42.7717 45.622 42.1838 45.0361 41.4585 45.0361C40.7333 45.0361 40.1453 45.622 40.1453 46.3447C40.1453 47.0674 40.7333 47.6533 41.4585 47.6533Z" fill="#FE2E01"/>
<path d="M38.6021 47.6926C39.3274 47.6926 39.9153 47.1068 39.9153 46.384C39.9153 45.6613 39.3274 45.0754 38.6021 45.0754C37.8769 45.0754 37.2889 45.6613 37.2889 46.384C37.2889 47.1068 37.8769 47.6926 38.6021 47.6926Z" fill="#FE2E01"/>
<path d="M35.7561 47.3464C36.4814 47.3464 37.0693 46.7606 37.0693 46.0378C37.0693 45.3151 36.4814 44.7292 35.7561 44.7292C35.0309 44.7292 34.4429 45.3151 34.4429 46.0378C34.4429 46.7606 35.0309 47.3464 35.7561 47.3464Z" fill="#FE2E01"/>
<path d="M51.7455 36.5742C52.4707 36.5742 53.0587 35.9883 53.0587 35.2656C53.0587 34.5429 52.4707 33.957 51.7455 33.957C51.0202 33.957 50.4323 34.5429 50.4323 35.2656C50.4323 35.9883 51.0202 36.5742 51.7455 36.5742Z" fill="#FE2E01"/>
<path d="M53.3657 34.2058C54.0909 34.2058 54.6789 33.6199 54.6789 32.8972C54.6789 32.1745 54.0909 31.5886 53.3657 31.5886C52.6404 31.5886 52.0525 32.1745 52.0525 32.8972C52.0525 33.6199 52.6404 34.2058 53.3657 34.2058Z" fill="#FE2E01"/>
<path d="M55.5963 35.9309C56.3215 35.9309 56.9094 35.345 56.9094 34.6223C56.9094 33.8996 56.3215 33.3137 55.5963 33.3137C54.871 33.3137 54.2831 33.8996 54.2831 34.6223C54.2831 35.345 54.871 35.9309 55.5963 35.9309Z" fill="#FE2E01"/>
<path d="M59.2142 34.9844C59.9395 34.9844 60.5274 34.3985 60.5274 33.6758C60.5274 32.9531 59.9395 32.3672 59.2142 32.3672C58.489 32.3672 57.9011 32.9531 57.9011 33.6758C57.9011 34.3985 58.489 34.9844 59.2142 34.9844Z" fill="#FE2E01"/>
<path d="M57.9011 37.5247C58.6263 37.5247 59.2143 36.9388 59.2143 36.2161C59.2143 35.4933 58.6263 34.9075 57.9011 34.9075C57.1758 34.9075 56.5879 35.4933 56.5879 36.2161C56.5879 36.9388 57.1758 37.5247 57.9011 37.5247Z" fill="#FE2E01"/>
<path d="M56.2387 39.8672C56.9639 39.8672 57.5518 39.2813 57.5518 38.5586C57.5518 37.8359 56.9639 37.25 56.2387 37.25C55.5134 37.25 54.9255 37.8359 54.9255 38.5586C54.9255 39.2813 55.5134 39.8672 56.2387 39.8672Z" fill="#FE2E01"/>
<path d="M54.3067 41.9819C55.0319 41.9819 55.6198 41.3961 55.6198 40.6733C55.6198 39.9506 55.0319 39.3647 54.3067 39.3647C53.5814 39.3647 52.9935 39.9506 52.9935 40.6733C52.9935 41.3961 53.5814 41.9819 54.3067 41.9819Z" fill="#FE2E01"/>
<path d="M53.9498 46.0469C54.6751 46.0469 55.263 45.461 55.263 44.7383C55.263 44.0156 54.6751 43.4297 53.9498 43.4297C53.2246 43.4297 52.6367 44.0156 52.6367 44.7383C52.6367 45.461 53.2246 46.0469 53.9498 46.0469Z" fill="#FE2E01"/>
<path d="M51.9755 40.3215C52.7008 40.3215 53.2887 39.7357 53.2887 39.0129C53.2887 38.2902 52.7008 37.7043 51.9755 37.7043C51.2503 37.7043 50.6624 38.2902 50.6624 39.0129C50.6624 39.7357 51.2503 40.3215 51.9755 40.3215Z" fill="#FE2E01"/>
<path d="M49.6853 42.0571C50.4106 42.0571 50.9985 41.4712 50.9985 40.7485C50.9985 40.0258 50.4106 39.4399 49.6853 39.4399C48.9601 39.4399 48.3721 40.0258 48.3721 40.7485C48.3721 41.4712 48.9601 42.0571 49.6853 42.0571Z" fill="#FE2E01"/>
<path d="M49.7235 38.5847C50.4487 38.5847 51.0366 37.9988 51.0366 37.2761C51.0366 36.5534 50.4487 35.9675 49.7235 35.9675C48.9982 35.9675 48.4103 36.5534 48.4103 37.2761C48.4103 37.9988 48.9982 38.5847 49.7235 38.5847Z" fill="#FE2E01"/>
<path d="M47.3722 40.2043C48.0974 40.2043 48.6854 39.6185 48.6854 38.8958C48.6854 38.173 48.0974 37.5872 47.3722 37.5872C46.647 37.5872 46.059 38.173 46.059 38.8958C46.059 39.6185 46.647 40.2043 47.3722 40.2043Z" fill="#FE2E01"/>
<path d="M47.1671 43.3867C47.8924 43.3867 48.4803 42.8008 48.4803 42.0781C48.4803 41.3554 47.8924 40.7695 47.1671 40.7695C46.4419 40.7695 45.8539 41.3554 45.8539 42.0781C45.8539 42.8008 46.4419 43.3867 47.1671 43.3867Z" fill="#FE2E01"/>
<path d="M49.6617 45.2827C50.387 45.2827 50.9749 44.6968 50.9749 43.9741C50.9749 43.2514 50.387 42.6655 49.6617 42.6655C48.9365 42.6655 48.3486 43.2514 48.3486 43.9741C48.3486 44.6968 48.9365 45.2827 49.6617 45.2827Z" fill="#FE2E01"/>
<path d="M53.9435 38.2603C54.6688 38.2603 55.2567 37.6744 55.2567 36.9517C55.2567 36.2289 54.6688 35.6431 53.9435 35.6431C53.2183 35.6431 52.6304 36.2289 52.6304 36.9517C52.6304 37.6744 53.2183 38.2603 53.9435 38.2603Z" fill="#FE2E01"/>
<path d="M53.8507 19.9519C54.576 19.9519 55.1639 19.366 55.1639 18.6433C55.1639 17.9206 54.576 17.3347 53.8507 17.3347C53.1255 17.3347 52.5375 17.9206 52.5375 18.6433C52.5375 19.366 53.1255 19.9519 53.8507 19.9519Z" fill="#FE2E01"/>
<path d="M51.9458 22.6614C52.671 22.6614 53.259 22.0755 53.259 21.3528C53.259 20.6301 52.671 20.0442 51.9458 20.0442C51.2205 20.0442 50.6326 20.6301 50.6326 21.3528C50.6326 22.0755 51.2205 22.6614 51.9458 22.6614Z" fill="#FE2E01"/>
<path d="M54.8341 22.6367C55.5593 22.6367 56.1472 22.0508 56.1472 21.3281C56.1472 20.6054 55.5593 20.0195 54.8341 20.0195C54.1088 20.0195 53.5209 20.6054 53.5209 21.3281C53.5209 22.0508 54.1088 22.6367 54.8341 22.6367Z" fill="#FE2E01"/>
<path d="M57.9877 24.3179C58.7129 24.3179 59.3009 23.732 59.3009 23.0093C59.3009 22.2866 58.7129 21.7007 57.9877 21.7007C57.2624 21.7007 56.6745 22.2866 56.6745 23.0093C56.6745 23.732 57.2624 24.3179 57.9877 24.3179Z" fill="#FE2E01"/>
<path d="M52.3844 17.4868C53.1097 17.4868 53.6976 16.9009 53.6976 16.1782C53.6976 15.4555 53.1097 14.8696 52.3844 14.8696C51.6592 14.8696 51.0712 15.4555 51.0712 16.1782C51.0712 16.9009 51.6592 17.4868 52.3844 17.4868Z" fill="#FE2E01"/>
<path d="M50.7573 20.073C51.4826 20.073 52.0705 19.4871 52.0705 18.7644C52.0705 18.0417 51.4826 17.4558 50.7573 17.4558C50.0321 17.4558 49.4442 18.0417 49.4442 18.7644C49.4442 19.4871 50.0321 20.073 50.7573 20.073Z" fill="#FE2E01"/>
<path d="M51.0927 12.1914C51.818 12.1914 52.4059 11.6055 52.4059 10.8828C52.4059 10.1601 51.818 9.57422 51.0927 9.57422C50.3675 9.57422 49.7795 10.1601 49.7795 10.8828C49.7795 11.6055 50.3675 12.1914 51.0927 12.1914Z" fill="#FE2E01"/>
<path d="M51.1017 8.82568C51.827 8.82568 52.4149 8.2398 52.4149 7.51709C52.4149 6.79437 51.827 6.2085 51.1017 6.2085C50.3765 6.2085 49.7886 6.79437 49.7886 7.51709C49.7886 8.2398 50.3765 8.82568 51.1017 8.82568Z" fill="#FE2E01"/>
<path d="M37.4185 5.61719C38.1438 5.61719 38.7317 5.03131 38.7317 4.30859C38.7317 3.58588 38.1438 3 37.4185 3C36.6933 3 36.1053 3.58588 36.1053 4.30859C36.1053 5.03131 36.6933 5.61719 37.4185 5.61719Z" fill="#FE2E01"/>
<path d="M40.9242 2.61719C41.6495 2.61719 42.2374 2.03131 42.2374 1.30859C42.2374 0.585877 41.6495 0 40.9242 0C40.199 0 39.611 0.585877 39.611 1.30859C39.611 2.03131 40.199 2.61719 40.9242 2.61719Z" fill="#FE2E01"/>
<path d="M15.821 24.0769C16.5462 24.0769 17.1342 23.491 17.1342 22.7683C17.1342 22.0456 16.5462 21.4597 15.821 21.4597C15.0957 21.4597 14.5078 22.0456 14.5078 22.7683C14.5078 23.491 15.0957 24.0769 15.821 24.0769Z" fill="#FE2E01"/>
<path d="M34.6203 6.12256C35.3455 6.12256 35.9334 5.53668 35.9334 4.81396C35.9334 4.09125 35.3455 3.50537 34.6203 3.50537C33.895 3.50537 33.3071 4.09125 33.3071 4.81396C33.3071 5.53668 33.895 6.12256 34.6203 6.12256Z" fill="#FE2E01"/>
<path d="M39.7585 36.7032C36.4958 36.7032 33.5506 35.3464 31.4626 33.1667C29.3589 35.7969 26.1172 37.4818 22.4795 37.4818C16.1383 37.4818 10.9967 32.3594 10.9967 26.0391C10.9967 19.7201 16.137 14.5964 22.4795 14.5964C25.7487 14.5964 28.6991 15.9584 30.7897 18.1433C32.8921 15.5209 36.1286 13.8399 39.7585 13.8399C40.3204 13.8399 40.8731 13.8803 41.4127 13.9584C37.4157 7.75138 30.4304 3.6394 22.4795 3.6394C10.0638 3.6381 0 13.668 0 26.0391C0 38.4102 10.0638 48.4402 22.4795 48.4402C31.1451 48.4402 38.6661 43.5534 42.4188 36.3933C41.5643 36.5964 40.6745 36.7032 39.7585 36.7032Z" fill="black"/>
</svg>
