<svg xmlns="http://www.w3.org/2000/svg" xmlns:xlink="http://www.w3.org/1999/xlink" viewBox="0 0 670 156">
    <defs>
        <style>.a{fill:url(#a);}.b{fill:url(#b);}.c{fill:#333;}</style>
        <linearGradient id="a" x1="56.04" y1="0.37" x2="56.04" y2="134.31" gradientUnits="userSpaceOnUse">
            <stop offset="0" stop-color="#eb8e79"/>
            <stop offset="0.5" stop-color="#d76d77"/>
            <stop offset="1" stop-color="#854374"/>
        </linearGradient>
        <linearGradient id="b" x1="99.93" y1="22.11" x2="99.93" y2="156.19" xlink:href="#a"/>
    </defs>
    <title>Artboard 1</title>
    <polygon class="a"
             points="24.11 78.26 56.04 110.19 100.03 66.2 112.09 78.26 56.04 134.31 -0.01 78.26 77.88 0.37 89.94 12.43 24.11 78.26"/>
    <polygon class="b"
             points="131.85 78.16 99.93 46.23 55.94 90.22 43.88 78.16 99.93 22.11 155.98 78.16 77.92 156.19 65.86 144.13 131.85 78.16"/>
    <path class="c"
          d="M192.58,96.48l8.74-9a13,13,0,0,0,6.28,6.62A24,24,0,0,0,217.71,96a17.07,17.07,0,0,0,7.44-1.31q2.63-1.32,2.62-3.61c0-1.24-.82-2.29-2.46-3.17a34,34,0,0,0-8.47-2.51q-12.57-2.52-17.65-6.61a13.51,13.51,0,0,1-5.08-11.1A14.68,14.68,0,0,1,197,59.1a19.62,19.62,0,0,1,8.41-6.51,32.89,32.89,0,0,1,13.34-2.46q9.18,0,14.86,2.79a23.55,23.55,0,0,1,9.51,8.8l-9.29,7.87a16.36,16.36,0,0,0-6-6.45,17.42,17.42,0,0,0-8.9-2.08,14.5,14.5,0,0,0-7.16,1.53c-1.79,1-2.68,2.26-2.68,3.72s.88,2.81,2.62,3.83,4.85,2,9.29,2.84q11.92,2.4,16.89,6.28a12.89,12.89,0,0,1,5,10.77,14.44,14.44,0,0,1-6.5,12.3Q229.84,107,217.93,107,199.68,107,192.58,96.48Z"/>
    <path class="c"
          d="M293.9,109.27q-4,11.15-9.35,15.62t-14.15,4.49q-8.86,0-13.88-4.27l3.71-10.6a9.12,9.12,0,0,0,3.88,2.68,17.07,17.07,0,0,0,5.3.71,9.59,9.59,0,0,0,5.47-1.42,10.67,10.67,0,0,0,3.5-5.14l2-4.7-6-14.21-16.72-41.2h16.61L284.5,84,287.45,95l3.28-11.59,10-32.13H316Z"/>
    <path class="c"
          d="M382.26,55.27q5.42,5.15,5.41,14.76v35.85h-15V74.4q0-12.47-9.73-12.46a12,12,0,0,0-8.91,3.72Q350.4,69.36,350.4,77v28.86h-15V51.23h13.44l.44,9.73a18.85,18.85,0,0,1,7.54-8.09A22.2,22.2,0,0,1,368,50.13Q376.85,50.13,382.26,55.27Z"/>
    <path class="c"
          d="M455.87,54.51a21.72,21.72,0,0,1,8.2,11.69l-14,5q-2-9.95-10.6-10-6.45,0-9.89,4.43t-3.45,13c0,5.68,1.17,10,3.5,12.84a11.83,11.83,0,0,0,9.73,4.32q9.61,0,11.37-9.73l13.55,4.38a19.7,19.7,0,0,1-8.14,12q-6.4,4.49-16.56,4.48-13.56,0-21-7.49t-7.43-20.93q0-13.44,7.38-20.93T439,50.13Q449.87,50.13,455.87,54.51Z"/>
    <path class="c"
          d="M524,51.34l-1.86,13.11A13.78,13.78,0,0,0,506,66.69q-3.89,3.89-3.88,10.88v28.31h-15V51.23h13l1,10.71q4.49-11.8,16.94-11.81A12,12,0,0,1,524,51.34Z"/>
    <path class="c"
          d="M593.7,84.24H555q2.29,11.58,13.66,11.58a15.45,15.45,0,0,0,7.76-1.75,9.29,9.29,0,0,0,4.26-5l12.24,4.49a19.39,19.39,0,0,1-8.8,10Q578,107,568.67,107q-13.56,0-21-7.49t-7.43-20.93q0-13.44,7.21-20.93t20.33-7.49q12.69,0,19.51,7.33t6.84,20.87A39.12,39.12,0,0,1,593.7,84.24ZM559,64.34q-3.22,3.18-4.1,9.4h25.46q-.87-6.12-4.15-9.34a11.63,11.63,0,0,0-8.52-3.23A11.85,11.85,0,0,0,559,64.34Z"/>
    <path class="c"
          d="M671.3,96.37l-1.09,9.07A15.7,15.7,0,0,1,663.1,107q-10.49,0-12.57-8.2a14.87,14.87,0,0,1-7.43,6.12A31,31,0,0,1,631.19,107q-8,0-12.46-3.61T614.25,93q0-13.33,21.31-17.27l13.11-2.51V70.57a9.59,9.59,0,0,0-2.46-6.94,9,9,0,0,0-6.83-2.57,14.1,14.1,0,0,0-8.19,2.19c-2.12,1.46-3.57,3.83-4.38,7.1l-11.91-5a18.14,18.14,0,0,1,7.87-11.15q6.12-4.05,16-4,11.68,0,18.25,5.09t6.56,15v22.4a4.36,4.36,0,0,0,1,3.17,4.17,4.17,0,0,0,3.06,1A13.09,13.09,0,0,0,671.3,96.37Zm-26.61-1.91q4-2.35,4-6.4V82.38L637,85a13.74,13.74,0,0,0-5.52,2.35,5,5,0,0,0-1.8,4.1,4.87,4.87,0,0,0,1.64,4,7,7,0,0,0,4.59,1.36A17.12,17.12,0,0,0,644.69,94.46Z"/>
</svg>
